<svg xmlns="http://www.w3.org/2000/svg" xmlns:xlink="http://www.w3.org/1999/xlink" width="120" height="27" viewBox="0 0 120 27">
  <defs>
    <polygon id="logo-footer-a" points="0 26.048 119.486 26.048 119.486 0 0 0"/>
  </defs>
  <g fill="none" fill-rule="evenodd">
    <polygon fill="#5E6DF2" points="22.491 25.802 34.245 25.802 34.245 22.555 26.007 22.555 26.007 19.54 33.864 19.54 33.864 16.338 26.007 16.338 26.007 13.176 34.245 13.176 34.245 9.929 22.491 9.929"/>
    <path fill="#5E6DF2" d="M43.8033444 10.422468L46.2877558 10.422468C48.4563147 10.422468 49.4663799 11.1049743 49.4663799 12.5711481 49.4663799 14.0622808 48.4267174 14.7869745 46.2877558 14.7869745L43.8033444 14.7869745 43.8033444 10.422468zM52.9595313 12.3922387C52.9595313 10.7758693 52.3757564 9.48683795 51.2247725 8.56158908 50.1036067 7.64208298 48.6380956 7.1758141 46.8697636 7.1758141L40.2881055 7.1758141 40.2881055 23.0481724 43.8033444 23.0481724 43.8033444 18.0113199 46.3272926 18.0113199 49.4162411 23.0481724 53.4103388 23.0481724 49.9087942 17.3321267C51.8211372 16.3819189 52.9595313 14.5431275 52.9595313 12.3922387zM70.1188447 20.5989245C69.0621747 22.0304207 67.6554165 22.7564396 65.937886 22.7564396 64.6029125 22.7564396 63.4715865 22.3133627 62.575935 21.4386944 61.6729946 20.5576207 61.2146772 19.3441288 61.2146772 17.8320129 61.2146772 16.3424263 61.6725528 15.1514638 62.5752723 14.2929194 63.5064849 13.4056612 64.5481353 12.9742907 65.7589766 12.9742907 67.4358659 12.9742907 68.9263361 13.7352079 69.8487136 15.0626717L69.9110005 15.1519055 72.2812191 12.7337569 72.2310803 12.671249C70.6314975 10.6886675 68.506672 9.68301986 65.9157985 9.68301986 63.5519853 9.68301986 61.5576974 10.4445997 59.9885954 11.9461137 58.4099959 13.4341542 57.6097627 15.4368353 57.6097627 17.8987174 57.6097627 20.3312229 58.4099959 22.3193263 59.9892581 23.8075877 61.5883991 25.2943029 63.620015 26.0479313 66.0275616 26.0479313 68.6849188 26.0479313 70.854803 25.0427254 72.4773569 23.0601439L72.5272748 22.9989613 70.1826778 20.5121203 70.1188447 20.5989245zM85.4796325 17.068158L81.6598058 17.068158 83.5697192 12.041024 85.4796325 17.068158zM85.220766 7.17557113L81.9188932 7.17557113 75.7628628 22.9255642 75.7149327 23.0481503 79.3551874 23.0481503 80.4891639 20.2028278 86.6303956 20.2028278 87.7851344 23.0481503 91.4249473 23.0481503 85.2428536 7.23299885 85.220766 7.17557113zM99.5112999 13.1760828L101.995711 13.1760828C104.163829 13.1760828 105.173894 13.85881 105.173894 15.3245421 105.173894 16.8154539 104.13401 17.5403684 101.995711 17.5403684L99.5112999 17.5403684 99.5112999 13.1760828zM108.666824 15.1456326C108.666824 13.5286007 108.083049 12.2397902 106.932728 11.3152039 105.8109 10.395477 104.345609 9.92898719 102.577719 9.92898719L95.9956193 9.92898719 95.9956193 25.8017873 99.5112999 25.8017873 99.5112999 20.7647139 102.035248 20.7647139 105.124197 25.8017873 109.118294 25.8017873 105.616308 20.0855207C107.52843 19.1353128 108.666824 17.2965215 108.666824 15.1456326z"/>
    <polygon fill="#5E6DF2" points="114.376 23.048 117.869 23.048 117.869 8.552 114.376 8.552"/>
    <polygon fill="#5E6DF2" points="119.486 1.616 117.87 5.445 114.041 3.829 115.657 0"/>
    <polygon fill="#5E6DF2" points="8.176 15.768 12.673 7.176 16.26 7.176 16.26 23.048 12.72 23.048 12.72 13.985 12.678 13.985 9.273 20.112 6.987 20.112 3.582 13.994 3.54 13.994 3.54 23.048 0 23.048 0 7.176 3.587 7.176 8.114 15.768"/>
  </g>
</svg>
