<svg width="29" height="24" viewBox="0 0 29 24" version="1.1" xmlns="http://www.w3.org/2000/svg" xmlns:xlink="http://www.w3.org/1999/xlink">
<title>twitter</title>
<desc>Created using Figma</desc>
<g id="Canvas" transform="translate(-1428 763)">
<g id="twitter">
<use xlink:href="#path0_fill" transform="translate(1428 -763)" fill="#CDCED2"/>
</g>
</g>
<defs>
<path id="path0_fill" d="M 9.12028 23.406C 20.0644 23.406 26.0489 14.4019 26.0489 6.59411C 26.0489 6.33837 26.0437 6.08377 26.0321 5.83033C 27.1939 4.99627 28.2037 3.95543 29 2.77059C 27.9339 3.24118 26.7867 3.55799 25.5832 3.70084C 26.8116 2.96931 27.7547 1.81211 28.1996 0.43258C 27.05 1.10939 25.7769 1.6013 24.4214 1.86683C 23.3357 0.718279 21.7899 0 20.0784 0C 16.7926 0 14.1281 2.64617 14.1281 5.90809C 14.1281 6.37177 14.1803 6.82279 14.2824 7.25537C 9.33723 7.00826 4.95238 4.65701 2.01814 1.08174C 1.50715 1.95496 1.21251 2.96931 1.21251 4.05162C 1.21251 6.10163 2.2629 7.91144 3.86023 8.97014C 2.88408 8.94018 1.96709 8.67407 1.16553 8.23112C 1.16465 8.25591 1.16465 8.28008 1.16465 8.30658C 1.16465 11.1682 3.21555 13.5574 5.9381 14.0989C 5.43813 14.2343 4.91207 14.3068 4.36918 14.3068C 3.98638 14.3068 3.61344 14.2694 3.25093 14.2003C 4.00842 16.5481 6.2049 18.2565 8.80913 18.3043C 6.77273 19.8895 4.20736 20.8335 1.41927 20.8335C 0.939609 20.8335 0.465745 20.8065 0 20.7518C 2.63323 22.4279 5.76004 23.406 9.12059 23.406"/>
</defs>
</svg>
