<svg width="35" height="24" viewBox="0 0 35 24" version="1.1" xmlns="http://www.w3.org/2000/svg" xmlns:xlink="http://www.w3.org/1999/xlink">
<title>Shape</title>
<desc>Created using Figma</desc>
<g id="Canvas" transform="translate(-1512 763)">
<g id="Shape">
<use xlink:href="#path0_fill" transform="translate(1512.02 -762.997)" fill="#CDCED2"/>
</g>
</g>
<defs>
<path id="path0_fill" fill-rule="evenodd" d="M 32.6098 1.60609C 31.9102 0.980596 31.0243 0.570375 30.0554 0.46492C 27.9495 0.232737 25.8244 0.115868 23.6924 0.0572721C 21.574 -0.000921345 19.4465 -0.000921347 17.3238 0.000284324C 15.2013 -0.000921338 13.074 -0.000921339 10.9553 0.0572721C 8.82301 0.115867 6.69735 0.232736 4.59022 0.46492C 3.62224 0.570429 2.7367 0.980836 2.03782 1.6066C 1.34339 2.22835 0.833179 3.06336 0.60998 4.02323C 0.308661 5.30989 0.156235 6.65232 0.0792325 8.00308C 0.00193099 9.35956 0 10.6989 0 11.9991C 0 13.2975 2.7199e-05 14.6351 0.0755061 15.9924C 0.150632 17.3425 0.301209 18.6849 0.602689 19.9718C 0.827222 20.9321 1.33768 21.7673 2.03206 22.389C 2.73052 23.0145 3.61519 23.4246 4.58289 23.5301C 6.69029 23.7623 8.81595 23.8792 10.9483 23.9377C 13.0669 23.9959 15.1942 23.9959 17.317 23.9947C 19.4407 23.9959 21.568 23.9959 23.6863 23.9377C 25.8183 23.8792 27.9434 23.7623 30.0505 23.5301C 31.0181 23.4246 31.9025 23.0146 32.6013 22.3894C 33.296 21.7677 33.8072 20.9324 34.0332 19.9718C 34.3333 18.6849 34.484 17.3425 34.5594 15.9924C 34.6337 14.661 34.6344 13.3103 34.6343 11.9991L 34.6357 11.9991L 34.6357 11.9332L 34.6343 11.9332C 34.6343 9.32794 34.6343 6.56857 34.0405 4.02326C 33.816 3.06296 33.305 2.22778 32.6098 1.60611L 32.6098 1.60609ZM 12.5767 17.1793L 12.5767 6.13779L 12.5767 5.54053L 13.115 5.81737C 14.7455 6.65595 16.3713 7.49164 17.9986 8.32807C 19.9563 9.33429 21.9163 10.3417 23.8895 11.3568L 24.5152 11.6787L 23.8881 11.9991L 18.5008 14.751C 16.7077 15.6667 14.9144 16.5822 13.1135 17.5011L 12.5767 17.7751L 12.5767 17.1793L 12.5767 17.1793Z"/>
</defs>
</svg>
